<svg width="20" height="16" viewBox="0 0 20 16" fill="none" xmlns="http://www.w3.org/2000/svg">
<path d="M10 3.5V1M5.50002 5.5V6.5M5.50002 6.5V7.5M5.50002 6.5H4.50002M5.50002 6.5H6.50002M14 6.5H13.5M16 6.5H16.5M15 5.5V5M15 7.5V8M10 8.8182C9.1258 8.8182 8.3493 9.3768 8.0713 10.2057L7.23833 12.6894C6.7754 14.0698 5.48229 15 4.02637 15C1.92375 15 0.328959 13.1046 0.688489 11.033L1.72256 5.07443C2.02662 3.32241 3.59609 2.07684 5.37139 2.17864L5.44072 2.18261C6.21027 2.22674 6.9542 2.47494 7.59609 2.90171C9.0525 3.86999 10.9476 3.86999 12.404 2.90171C13.0458 2.47494 13.7898 2.22674 14.5593 2.18261L14.6287 2.17864C16.404 2.07684 17.9734 3.32241 18.2775 5.07443L19.3116 11.0329C19.6711 13.1046 18.0763 15 15.9737 15C14.5178 15 13.2246 14.0698 12.7617 12.6894L11.9287 10.2057C11.6508 9.3768 10.8743 8.8182 10 8.8182Z" stroke="black" stroke-width="1.25" stroke-linecap="round"/>
</svg>
