<svg width="20" height="20" viewBox="0 0 20 20" fill="none" xmlns="http://www.w3.org/2000/svg">
<path d="M5 1.5H3.5C2.39543 1.5 1.5 2.39543 1.5 3.5V6.75M5 1.5H15M5 1.5V6.75M1.5 6.75H5M1.5 6.75V13.25M15 1.5H16.5C17.6046 1.5 18.5 2.39543 18.5 3.5V6.75M15 1.5V6.75M5 6.75V10M5 18.5H3.5C2.39543 18.5 1.5 17.6046 1.5 16.5V13.25M5 18.5H15M5 18.5V13.25M1.5 13.25H5M15 18.5H16.5C17.6046 18.5 18.5 17.6046 18.5 16.5V13.25M15 18.5V13.25M5 13.25V10M18.5 6.75V13.25M18.5 6.75H15M15 6.75V10M18.5 13.25H15M15 13.25V10M15 10H5" stroke="black" stroke-width="1.25" stroke-linecap="round"/>
</svg>
