<svg width="19" height="20" viewBox="0 0 19 20" fill="none" xmlns="http://www.w3.org/2000/svg">
<path d="M8.99996 8.10072C9.15906 7.05278 9.26086 4.69665 7.45096 2.88673C5.64102 1.07681 3.28489 1.17861 2.23697 1.33772C1.89539 1.38959 1.63569 1.64929 1.58382 1.99087C1.42471 3.03879 1.3229 5.39492 3.13282 7.20484C4.94275 9.01472 7.29886 8.91292 8.34676 8.75382C8.68836 8.70202 8.94806 8.44232 8.99996 8.10072ZM8.99996 8.10072L9.00006 18.9999M15.0291 14.302C17.3028 12.9893 17.8207 10.6238 17.9381 9.55322C17.9758 9.20982 17.7926 8.89242 17.4763 8.75332C16.4905 8.31972 14.1829 7.58551 11.9092 8.89822C9.63536 10.211 9.11756 12.5765 9.00006 13.647C8.96236 13.9905 9.14566 14.3079 9.46186 14.447C10.4478 14.8805 12.7553 15.6148 15.0291 14.302Z" stroke="black" stroke-width="1.25" stroke-linecap="round"/>
</svg>
