<svg width="20" height="19" viewBox="0 0 20 19" fill="none" xmlns="http://www.w3.org/2000/svg">
<path d="M8.49976 5C9.69976 3.8 9.66646 1.83333 9.49976 1M10.9998 8.5C11.4998 6.5 13.2349 7.44868 14.4998 6.5C16.4998 5 13.4998 3 16.4998 2.5M13.9998 11C15.4998 10.5 17.4998 11 18.4998 12M3.37084 10.4926L8.47776 15.5995M3.37084 10.4926L4.21556 8.4089C4.48454 7.74544 5.34318 7.57128 5.84941 8.0775L10.8929 13.1209C11.3991 13.6271 11.2249 14.4858 10.5615 14.7548L8.47776 15.5995M3.37084 10.4926L0.776868 16.891C0.444878 17.7099 1.2604 18.5255 2.07932 18.1935L8.47776 15.5995M5.99975 3C5.99975 3.55228 5.55203 4 4.99975 4C4.44746 4 3.99975 3.55228 3.99975 3C3.99975 2.44772 4.44746 2 4.99975 2C5.55203 2 5.99975 2.44772 5.99975 3ZM17.9998 16C17.9998 16.5523 17.5521 17 16.9998 17C16.4475 17 15.9998 16.5523 15.9998 16C15.9998 15.4477 16.4475 15 16.9998 15C17.5521 15 17.9998 15.4477 17.9998 16Z" stroke="black" stroke-width="1.25" stroke-linecap="round"/>
</svg>
